<svg width="22" height="23" viewBox="0 0 22 23" fill="none" xmlns="http://www.w3.org/2000/svg">
<g clip-path="url(#clip0_4_219)">
<path d="M22 11.5C22 5.42422 17.0758 0.5 11 0.5C4.92422 0.5 0 5.42422 0 11.5C0 17.5758 4.92422 22.5 11 22.5C11.0645 22.5 11.1289 22.5 11.1934 22.4957V13.9363H8.83008V11.182H11.1934V9.15391C11.1934 6.80352 12.6285 5.52305 14.7254 5.52305C15.7309 5.52305 16.5945 5.59609 16.8438 5.63047V8.08828H15.4C14.2613 8.08828 14.0379 8.62969 14.0379 9.42461V11.1777H16.7664L16.4098 13.932H14.0379V22.0746C18.6355 20.7555 22 16.523 22 11.5Z" fill="#FDFDFD"/>
</g>
<defs>
<clipPath id="clip0_4_219">
<rect width="22" height="22" fill="white" transform="translate(0 0.5)"/>
</clipPath>
</defs>
</svg>
