<svg width="22" height="23" viewBox="0 0 22 23" fill="none" xmlns="http://www.w3.org/2000/svg">
<g clip-path="url(#clip0_4_201)">
<path d="M21.1693 9.5874L12.1957 9.58698C11.7995 9.58698 11.4783 9.90812 11.4783 10.3044V13.171C11.4783 13.5672 11.7995 13.8884 12.1957 13.8884H17.2491C16.6957 15.3245 15.6629 16.5272 14.3452 17.2913L16.5 21.0214C19.9565 19.0224 22 15.5149 22 11.5885C22 11.0294 21.9588 10.6297 21.8764 10.1797C21.8137 9.83783 21.5169 9.5874 21.1693 9.5874Z" fill="#167EE6"/>
<path d="M10.9999 18.1956C8.52689 18.1956 6.36797 16.8444 5.20846 14.845L1.47852 16.9949C3.37666 20.2846 6.9325 22.5 10.9999 22.5C12.9953 22.5 14.878 21.9627 16.4999 21.0265V21.0214L14.3452 17.2913C13.3595 17.8629 12.219 18.1956 10.9999 18.1956Z" fill="#12B347"/>
<path d="M16.5 21.0265V21.0214L14.3452 17.2913C13.3596 17.8629 12.2192 18.1956 11 18.1956V22.5C12.9953 22.5 14.8782 21.9627 16.5 21.0265Z" fill="#0F993E"/>
<path d="M4.30435 11.5C4.30435 10.281 4.63702 9.1406 5.20854 8.15503L1.4786 6.00513C0.537195 7.62191 0 9.49956 0 11.5C0 13.5005 0.537195 15.3781 1.4786 16.9949L5.20854 14.845C4.63702 13.8594 4.30435 12.719 4.30435 11.5Z" fill="#FFD500"/>
<path d="M10.9999 4.80435C12.6126 4.80435 14.0939 5.37738 15.2509 6.33056C15.5363 6.56568 15.9512 6.54871 16.2127 6.28725L18.2438 4.25611C18.5405 3.95946 18.5193 3.47387 18.2024 3.19895C16.2639 1.5172 13.7416 0.5 10.9999 0.5C6.9325 0.5 3.37666 2.71534 1.47852 6.00511L5.20846 8.15501C6.36797 6.15555 8.52689 4.80435 10.9999 4.80435Z" fill="#FF4B26"/>
<path d="M15.251 6.33056C15.5364 6.56568 15.9513 6.54871 16.2128 6.28725L18.2439 4.25611C18.5405 3.95946 18.5194 3.47387 18.2025 3.19895C16.264 1.51716 13.7417 0.5 11 0.5V4.80435C12.6126 4.80435 14.094 5.37738 15.251 6.33056Z" fill="#D93F21"/>
</g>
<defs>
<clipPath id="clip0_4_201">
<rect width="22" height="22" fill="white" transform="translate(0 0.5)"/>
</clipPath>
</defs>
</svg>
